<svg width="16" height="16" viewBox="0 0 16 16" fill="none" xmlns="http://www.w3.org/2000/svg">
<path d="M0.0430617 0.0825553L0.056706 0.0357815L4.53359 3.14114L8.8014 6.20989L8.82984 6.28998L4.45093 3.24071L0.0430617 0.0825553Z" fill="#424242"/>
<ellipse cx="0.899148" cy="1.33432" rx="0.899148" ry="1.33432" transform="matrix(0.899182 -0.437575 0.565113 0.825014 7.1239 5.90359)" fill="#438B60"/>
<path d="M4.64275 3.55503L13.6932 3.53082L12.9982 4.31771L12.0215 5.44357L9.00538 8.36111L4.29443 3.60346L4.64275 3.55503Z" fill="#EBF8FF" fill-opacity="0.55"/>
<path d="M15.4117 1.98914L9.18414 8.45105L9.11383 8.52429L9.11481 8.62585L9.14313 15.2811L9.1441 15.494L9.35504 15.5262L10.7847 15.7499H7.45856L8.77399 15.5262L8.98297 15.4901V15.2782L8.95367 8.62292V8.52039L8.88043 8.44812L2.44098 1.98914H15.4117Z" stroke="#FAFAFA" stroke-width="0.5"/>
</svg>
